<svg width="24" height="24" viewBox="0 0 24 24" fill="none" xmlns="http://www.w3.org/2000/svg">
<path d="M20 17.175L18 15.175V4H10.85L8.85001 6L7.40001 4.6L10 2H18C18.55 2 19.021 2.196 19.413 2.588C19.805 2.98 20.0007 3.45067 20 4V17.175ZM20.5 23.3L6.00001 8.8V20H18V17.975L20 19.975V20C20 20.55 19.804 21.021 19.412 21.413C19.02 21.805 18.5493 22.0007 18 22H6.00001C5.45001 22 4.97901 21.804 4.58701 21.412C4.19501 21.02 3.99935 20.5493 4.00001 20V8L4.60001 7.4L0.700012 3.5L2.12501 2.1L21.9 21.875L20.5 23.3Z" fill="#837E9F"/>
</svg>
